<svg width="102" height="31" viewBox="0 0 102 31" fill="none" xmlns="http://www.w3.org/2000/svg">
<path d="M8.29844 7.5C10.8818 7.5 12.8901 8.21667 14.3234 9.65C15.7734 11.0667 16.4984 13.1 16.4984 15.75C16.4984 18.4 15.7734 20.4417 14.3234 21.875C12.8901 23.2917 10.8818 24 8.29844 24H2.47344V7.5H8.29844ZM8.29844 21.725C10.0484 21.725 11.3818 21.2083 12.2984 20.175C13.2318 19.125 13.6984 17.65 13.6984 15.75C13.6984 13.85 13.2318 12.3833 12.2984 11.35C11.3818 10.3 10.0484 9.775 8.29844 9.775H5.14844V21.725H8.29844ZM21.3439 9.4C20.7606 9.4 20.3106 9.25833 19.9939 8.975C19.6939 8.675 19.5439 8.25833 19.5439 7.725C19.5439 7.19167 19.6939 6.78333 19.9939 6.5C20.3106 6.21667 20.7606 6.075 21.3439 6.075C21.9106 6.075 22.3439 6.21667 22.6439 6.5C22.9606 6.78333 23.1189 7.19167 23.1189 7.725C23.1189 8.25833 22.9606 8.675 22.6439 8.975C22.3439 9.25833 21.9106 9.4 21.3439 9.4ZM22.6689 11.5V24H19.9939V11.5H22.6689ZM33.9043 22.05C35.171 22.05 36.1543 22.3333 36.8543 22.9C37.5543 23.45 37.9043 24.2167 37.9043 25.2C37.9043 26.0833 37.6293 26.8333 37.0793 27.45C36.5293 28.0833 35.7793 28.5583 34.8293 28.875C33.8793 29.2083 32.8043 29.375 31.6043 29.375C29.5376 29.375 28.0126 29.0583 27.0293 28.425C26.0626 27.7917 25.5793 27 25.5793 26.05C25.5793 25.4833 25.746 24.975 26.0793 24.525C26.4126 24.075 26.9626 23.7667 27.7293 23.6C27.2626 23.4 26.896 23.125 26.6293 22.775C26.3626 22.4083 26.2293 21.9417 26.2293 21.375C26.2293 20.825 26.3876 20.3417 26.7043 19.925C27.021 19.4917 27.4876 19.1667 28.1043 18.95C26.7876 18.2 26.1293 17.0417 26.1293 15.475C26.1293 14.2083 26.621 13.1917 27.6043 12.425C28.5876 11.6417 29.8876 11.25 31.5043 11.25C32.5543 11.25 33.4793 11.4167 34.2793 11.75C34.4126 10.9167 34.7793 10.2333 35.3793 9.7C35.9793 9.15 36.7376 8.875 37.6543 8.875C37.7376 8.875 37.8043 8.875 37.8543 8.875L38.2793 10.975C38.196 10.9583 38.096 10.95 37.9793 10.95C36.546 10.95 35.746 11.475 35.5793 12.525C36.4626 13.2917 36.9043 14.275 36.9043 15.475C36.9043 16.7583 36.4126 17.7833 35.4293 18.55C34.446 19.3167 33.1376 19.7 31.5043 19.7C30.821 19.7 30.196 19.6417 29.6293 19.525C29.1793 19.6417 28.8543 19.825 28.6543 20.075C28.471 20.3083 28.3793 20.5583 28.3793 20.825C28.3793 21.6417 28.971 22.05 30.1543 22.05H33.9043ZM31.5043 13.125C30.7376 13.125 30.096 13.3417 29.5793 13.775C29.0793 14.1917 28.8293 14.7583 28.8293 15.475C28.8293 16.1917 29.0793 16.7667 29.5793 17.2C30.096 17.6333 30.7376 17.85 31.5043 17.85C32.2876 17.85 32.9293 17.6333 33.4293 17.2C33.946 16.7667 34.2043 16.1917 34.2043 15.475C34.2043 14.7583 33.946 14.1917 33.4293 13.775C32.9293 13.3417 32.2876 13.125 31.5043 13.125ZM31.6043 27.375C32.971 27.375 33.9793 27.1917 34.6293 26.825C35.296 26.4583 35.6293 26.025 35.6293 25.525C35.6293 25.1417 35.471 24.8333 35.1543 24.6C34.8543 24.3667 34.3043 24.25 33.5043 24.25H29.4793C28.996 24.25 28.596 24.375 28.2793 24.625C27.9793 24.875 27.8293 25.2 27.8293 25.6C27.8293 26.15 28.1626 26.5833 28.8293 26.9C29.496 27.2167 30.421 27.375 31.6043 27.375ZM41.7053 9.4C41.1219 9.4 40.6719 9.25833 40.3553 8.975C40.0553 8.675 39.9053 8.25833 39.9053 7.725C39.9053 7.19167 40.0553 6.78333 40.3553 6.5C40.6719 6.21667 41.1219 6.075 41.7053 6.075C42.2719 6.075 42.7053 6.21667 43.0053 6.5C43.3219 6.78333 43.4803 7.19167 43.4803 7.725C43.4803 8.25833 43.3219 8.675 43.0053 8.975C42.7053 9.25833 42.2719 9.4 41.7053 9.4ZM43.0303 11.5V24H40.3553V11.5H43.0303Z" fill="#FF5300"/>
<path d="M52.7156 24.25C51.4656 24.25 50.3656 23.9917 49.4156 23.475C48.4823 22.9583 47.749 22.2167 47.2156 21.25C46.6823 20.2667 46.4156 19.1 46.4156 17.75C46.4156 16.4 46.674 15.2417 47.1906 14.275C47.724 13.2917 48.449 12.5417 49.3656 12.025C50.299 11.5083 51.3656 11.25 52.5656 11.25C53.7823 11.25 54.8156 11.5 55.6656 12C56.5156 12.5 57.1656 13.1833 57.6156 14.05C58.0656 14.9167 58.2906 15.9 58.2906 17C58.2906 17.3167 58.2823 17.6083 58.2656 17.875C58.249 18.1417 58.224 18.3667 58.1906 18.55H49.0406C49.1573 19.7167 49.5323 20.6083 50.1656 21.225C50.8156 21.825 51.649 22.125 52.6656 22.125C53.499 22.125 54.174 21.9667 54.6906 21.65C55.2073 21.3333 55.6156 20.8917 55.9156 20.325L58.0406 21.325C57.6073 22.2417 56.9156 22.9583 55.9656 23.475C55.0323 23.9917 53.949 24.25 52.7156 24.25ZM52.5156 13.375C51.599 13.375 50.8406 13.6417 50.2406 14.175C49.6573 14.7083 49.2823 15.4833 49.1156 16.5H55.6906C55.624 15.5 55.3073 14.7333 54.7406 14.2C54.174 13.65 53.4323 13.375 52.5156 13.375ZM61.6688 24V11.5H64.0438L64.1688 13.65C64.5854 12.8167 65.1604 12.2083 65.8938 11.825C66.6438 11.4417 67.4771 11.25 68.3938 11.25C69.2771 11.25 70.0688 11.425 70.7688 11.775C71.4854 12.1083 72.0521 12.625 72.4688 13.325C72.8854 14.0083 73.0938 14.8667 73.0938 15.9V24H70.4188V16.725C70.4188 15.4917 70.1604 14.6417 69.6438 14.175C69.1438 13.6917 68.5104 13.45 67.7438 13.45C67.1938 13.45 66.6604 13.575 66.1438 13.825C65.6271 14.075 65.1938 14.4917 64.8438 15.075C64.5104 15.6417 64.3438 16.4 64.3438 17.35V24H61.6688ZM82.5473 11.25C84.0306 11.25 85.2139 11.575 86.0973 12.225C86.9806 12.875 87.6139 13.7167 87.9973 14.75L85.4723 15.75C85.2556 14.9833 84.9056 14.4 84.4223 14C83.9556 13.5833 83.3389 13.375 82.5723 13.375C81.4556 13.375 80.5806 13.7583 79.9473 14.525C79.3306 15.275 79.0223 16.3583 79.0223 17.775C79.0223 19.175 79.3389 20.25 79.9723 21C80.6056 21.75 81.4723 22.125 82.5723 22.125C83.4389 22.125 84.1223 21.9167 84.6223 21.5C85.1389 21.0833 85.4806 20.4833 85.6473 19.7L88.0723 20.525C87.7223 21.6583 87.0806 22.5667 86.1473 23.25C85.2139 23.9167 84.0389 24.25 82.6223 24.25C81.3889 24.25 80.2973 23.9917 79.3473 23.475C78.4139 22.9583 77.6806 22.2167 77.1473 21.25C76.6139 20.2667 76.3473 19.1 76.3473 17.75C76.3473 16.4 76.6139 15.2417 77.1473 14.275C77.6806 13.2917 78.4139 12.5417 79.3473 12.025C80.2806 11.5083 81.3473 11.25 82.5473 11.25ZM101.77 11.5L96.2947 25.475C95.7447 26.925 95.1197 27.9333 94.4197 28.5C93.7197 29.0833 92.8197 29.375 91.7197 29.375C91.1031 29.375 90.5447 29.3 90.0447 29.15C89.5447 29 89.1031 28.7833 88.7197 28.5L89.3697 26.425C89.9697 26.9583 90.6947 27.225 91.5447 27.225C91.9947 27.225 92.3947 27.1083 92.7447 26.875C93.1114 26.6417 93.4364 26.1583 93.7197 25.425L94.2697 24.075L92.9447 20.975L89.0447 11.5H92.0447L94.8197 19.35L95.5447 21.7L96.3697 19.125L98.9947 11.5H101.77Z" fill="#373737"/>
</svg>
